<?xml version="1.0" encoding="UTF-8"?>
<svg width="689px" height="575px" viewBox="0 0 689 575" version="1.1" xmlns="http://www.w3.org/2000/svg" xmlns:xlink="http://www.w3.org/1999/xlink">
    <!-- Generator: Sketch 50.2 (55047) - http://www.bohemiancoding.com/sketch -->
    <title>230818 homepage-01</title>
    <desc>Created with Sketch.</desc>
    <defs></defs>
    <g id="Web-page" stroke="none" stroke-width="1" fill="none" fill-rule="evenodd">
        <g id="230818-homepage-01" transform="translate(2.000000, 3.000000)">
            <g id="Group" transform="translate(0.000000, 110.000000)" stroke="#416FF9" stroke-width="5">
                <path d="M0.533,69.267 C0.533,31.442 31.196,0.778 69.022,0.778 C106.848,0.778 137.511,31.441 137.511,69.267 L137.511,206.244 L0.533,206.244 L0.533,69.267 Z" id="Shape" fill="#00D8FF" fill-rule="nonzero"></path>
                <path d="M69.022,0.778 L69.022,206.244" id="Shape"></path>
                <path d="M0.533,114.926 L137.511,114.926" id="Shape"></path>
            </g>
            <rect id="Rectangle-path" x="19.973" y="101.481" width="121.303" height="219.008"></rect>
            <path d="M613.513,553.107 C613.513,563.239 518.742,571.452 401.837,571.452 C284.932,571.452 212.117,563.238 212.117,553.107 C212.117,542.975 284.932,534.762 401.837,534.762 C518.742,534.762 613.513,542.975 613.513,553.107 Z" id="Shape" fill="#C1A4F7" fill-rule="nonzero"></path>
            <ellipse id="Oval" fill="#C1A4F7" fill-rule="nonzero" cx="178.03" cy="549.624" rx="61.574" ry="16.914"></ellipse>
            <path d="M129.316,470.722 L118.069,486.316 C117.018,486.379 116.107,485.571 116.043,484.52 L98.361,379.744 C98.298,378.693 101.26,377.782 102.311,377.718 L123.282,384.048 C124.333,383.985 125.244,384.793 125.308,385.844 L130.211,465.543 C130.274,466.594 130.367,470.658 129.316,470.722 Z" id="Shape" fill="#3A3AA4" fill-rule="nonzero"></path>
            <path d="M134.088,470.722 L122.841,486.316 C121.79,486.379 120.879,485.571 120.815,484.52 L103.488,383.838 C103.425,382.787 102.434,377.782 103.485,377.718 L123.796,380.494 C124.847,380.431 125.758,381.239 125.822,382.29 L139.296,470.993 C139.359,472.044 135.139,470.658 134.088,470.722 Z" id="Shape" fill="#00D2FF" fill-rule="nonzero"></path>
            <g id="Group" transform="translate(203.000000, 474.000000)" fill-rule="nonzero">
                <path d="M32.874,0.081 L3.381,50.273 C3.381,50.273 7.927,63.844 21.587,59.946 L54.312,3.83 L32.874,0.081 Z" id="Shape" fill="#00004F"></path>
                <g transform="translate(0.000000, 50.000000)" id="Shape">
                    <path d="M4.37,9.643 L13.439,8.71 C16.324,10.462 17.867,10.864 21.906,12.019 C27.994,13.76 37.106,14.308 37.106,14.308 C43.208,19.352 33.258,23.213 33.258,23.213 C33.258,23.213 22.983,28.767 7.79,19.436 C7.79,19.437 -5.869,17.077 4.37,9.643 Z" fill="#FFFFFF"></path>
                    <path d="M3.381,0.273 C3.381,0.273 0.466,11.796 2.287,15.01 C3.038,16.336 7.733,17.747 7.733,17.747 C7.733,17.747 20.281,27.179 36.584,19.797 C36.584,19.797 39.667,17.568 37.107,14.308 C37.107,14.308 34.333,9.561 23.989,11.351 L23.641,6.425 C23.641,6.425 20.87,15.848 3.381,0.273 Z" fill="#FFAB00"></path>
                    <path d="M25.126,10.462 L18.091,15.963 C18.091,15.963 13.193,16.949 10.398,12.584 C10.398,12.584 9.858,17.573 18.372,17.746 C18.372,17.747 26.737,15.933 25.126,10.462 Z" fill="#FFFFFF"></path>
                </g>
            </g>
            <g id="Group" transform="translate(116.000000, 468.000000)" fill-rule="nonzero">
                <path d="M97.032,92.594 L92.652,92.594 C92.102,92.594 91.652,92.144 91.652,91.594 L91.652,19.582 C91.652,19.032 92.102,18.582 92.652,18.582 L97.032,18.582 C97.582,18.582 98.032,19.032 98.032,19.582 L98.032,91.594 C98.032,92.144 97.582,92.594 97.032,92.594 Z" id="Shape" fill="#416FF9"></path>
                <path d="M84.908,77.005 L80.528,77.005 C79.978,77.005 79.528,76.555 79.528,76.005 L79.528,3.993 C79.528,3.443 79.978,2.993 80.528,2.993 L84.908,2.993 C85.458,2.993 85.908,3.443 85.908,3.993 L85.908,76.005 C85.908,76.555 85.458,77.005 84.908,77.005 Z" id="Shape" fill="#416FF9"></path>
                <path d="M17.354,92.594 L12.974,92.594 C12.424,92.594 11.974,92.144 11.974,91.594 L11.974,19.582 C11.974,19.032 12.424,18.582 12.974,18.582 L17.354,18.582 C17.904,18.582 18.354,19.032 18.354,19.582 L18.354,91.594 C18.354,92.144 17.904,92.594 17.354,92.594 Z" id="Shape" fill="#416FF9"></path>
                <path d="M36.495,77.005 L32.115,77.005 C31.565,77.005 31.115,76.555 31.115,76.005 L31.115,3.993 C31.115,3.443 31.565,2.993 32.115,2.993 L36.495,2.993 C37.045,2.993 37.495,3.443 37.495,3.993 L37.495,76.005 C37.495,76.555 37.045,77.005 36.495,77.005 Z" id="Shape" fill="#416FF9"></path>
                <path d="M96.181,2.273 L14.246,7.087 C12.563,7.087 10.81,9.488 8.068,9.931 L0.456,16.293 C0.456,20.505 1.788,29.041 3.471,29.041 L105.75,29.041 C107.433,29.041 108.81,19.731 108.81,15.519 L99.24,9.93 C99.24,5.719 97.863,2.273 96.181,2.273 Z" id="Shape_254_" fill="#3A3AA4"></path>
                <path d="M107.587,18.582 L10.212,18.319 C9.539,18.319 3.011,18.319 4.305,13.076 L11.974,6.081 C11.974,4.396 18.345,2.273 19.018,2.273 L98.016,0.256 C98.689,0.256 99.24,1.634 99.24,3.319 L108.81,15.519 C108.811,17.204 108.26,18.582 107.587,18.582 Z" id="Shape_253_" fill="#00D2FF"></path>
            </g>
            <ellipse id="Oval" fill="#179BBA" fill-rule="nonzero" cx="186.199" cy="477.419" rx="41.923" ry="9.331"></ellipse>
            <path d="M135.77,448.68 C135.77,448.68 125.733,496.866 233.556,481.018 L249.659,537.455 L273.81,537.455 L266.678,480.51 C266.678,480.51 266.678,448.68 210.29,446.027 L135.77,448.68 Z" id="Shape" fill="#00004F" fill-rule="nonzero"></path>
            <g id="Group" transform="translate(116.000000, 373.000000)" fill-rule="nonzero">
                <path d="M3.011,15.841 C-4.876,34.384 10.26,80.731 16.791,95.256 L85.908,73.251 C78.433,62.632 50.471,64.037 46.143,37.292 C44.293,25.858 48.585,11.289 48.585,11.289 L21.246,1.826 C21.246,1.827 5.261,10.55 3.011,15.841 Z" id="Shape" fill="#FF9100"></path>
                <path d="M15.866,16.945 C16.943,39.834 14.699,61.383 31.938,90.434 L85.908,73.252 C84.712,70.661 72.35,58.103 58.501,34.817 C53.741,26.814 54.188,15.439 50.274,10.29 C47.01,5.996 31.115,0.371 31.115,0.371 C31.115,0.371 15.653,12.401 15.866,16.945 Z" id="Shape" fill="#FFAB00"></path>
            </g>
            <g id="Group" transform="translate(398.000000, 269.000000)" fill-rule="nonzero">
                <g transform="translate(67.000000, 46.000000)" id="Shape">
                    <path d="M1.844,49.857 C1.844,49.857 15.156,56.026 21.995,45.092 C21.995,45.092 23.062,49.543 34.124,59.481 C40.624,65.321 65.902,66.616 58.119,43.918 C56.994,40.634 57.223,35.301 62.4,32.633 C75.241,26.018 69.14,-5.429 44.903,0.985 C44.904,0.986 -7.179,42.668 1.844,49.857 Z" fill="#0D4FD3"></path>
                    <path d="M30.104,56.11 C37.368,66.486 57.887,60.381 51.722,43.487 C50.529,40.223 48.712,33.017 53.97,30.516 C63.403,26.035 66.534,-5.037 42.296,1.375" fill="#0065FF"></path>
                </g>
                <path d="M68.501,95.857 C68.501,95.857 55.19,102.026 48.35,91.092 C48.35,91.092 47.284,95.543 36.221,105.481 C29.721,111.321 4.444,112.616 12.226,89.918 C13.352,86.634 13.123,81.301 7.946,78.633 C-4.895,72.018 -3.027,41.235 27.064,49.536 C27.063,49.537 77.525,88.668 68.501,95.857 Z" id="Shape" fill="#0065FF"></path>
                <g transform="translate(31.000000, 26.000000)" id="Shape">
                    <path d="M77.797,45.318 C77.957,65.99 69.146,84.935 50.442,85.075 L29.364,85.239 C10.657,85.375 2.703,66.663 2.549,45.994 L2.493,38.551 C2.332,17.881 10.035,1.011 28.74,0.867 L49.818,0.706 C68.521,0.564 77.587,17.206 77.741,37.876 L77.797,45.318 Z" fill="#F9AA69"></path>
                    <path d="M69.39,56.916 C69.996,90.121 29.363,85.239 29.363,85.239 C10.656,85.375 0.367,68.762 0.213,48.094 L0.157,40.651 C-0.004,19.981 10.034,1.012 28.739,0.868 L49.817,0.707 C68.52,0.565 69.581,19.644 69.736,40.314 L69.39,56.916 Z" fill="#FDC58A"></path>
                </g>
                <g transform="translate(53.000000, 67.000000)" id="Shape">
                    <path d="M7.748,4.422 C7.737,6.551 6,8.269 3.873,8.26 C1.74,8.247 0.024,6.512 0.035,4.383 C0.046,2.254 1.781,0.536 3.912,0.545 C6.039,0.558 7.759,2.291 7.748,4.422 Z" fill="#231F20"></path>
                    <path d="M6.147,3.022 C6.145,3.691 5.594,4.235 4.925,4.232 C4.25,4.228 3.71,3.681 3.714,3.008 C3.714,2.337 4.265,1.795 4.936,1.799 C5.609,1.801 6.151,2.347 6.147,3.022 Z" fill="#FFFFFF"></path>
                    <path d="M32.709,4.549 C32.698,6.68 30.963,8.4 28.832,8.387 C26.705,8.374 24.985,6.639 24.996,4.512 C25.007,2.383 26.744,0.665 28.871,0.676 C31.001,0.686 32.72,2.422 32.709,4.549 Z" fill="#231F20"></path>
                    <path d="M31.109,3.02 C31.107,3.693 30.556,4.235 29.886,4.231 C29.213,4.227 28.671,3.678 28.673,3.005 C28.677,2.332 29.224,1.79 29.897,1.795 C30.571,1.798 31.113,2.347 31.109,3.02 Z" fill="#FFFFFF"></path>
                </g>
                <path d="M81.952,89.709 C81.92,95.876 76.898,100.848 70.733,100.816 C64.568,100.784 59.596,95.76 59.6278464,89.593" id="Shape" fill="#FFFFFF"></path>
                <path d="M39.678,41.8 C39.678,41.8 52.05,59.877 62.212,54.058 C62.212,54.058 56.951,43.03 56.971,38.872 C56.971,38.872 77.609,56.469 80.15,54.525 C80.15,54.525 76.985,49.385 79.799,43.77 L101.093,44.727 C101.093,44.727 107.262,53.806 108.691,61.468 C108.691,61.468 127.361,0.57 60.259,0.226 C60.259,0.226 5.076,0.392 23.428,67.79 C23.428,67.79 25.854,70.222 27.408,59.222 C27.409,59.222 28.525,42.288 39.678,41.8 Z" id="Shape" fill="#0D4FD3"></path>
                <path d="M41.754,45.386 C41.754,45.386 51.443,59.243 63.376,55.824 C63.376,55.824 58.186,49.194 64.929,46.046 C64.929,46.046 71.936,58.273 82.659,56.089 C82.659,56.089 78.571,52.668 81.258,47.089 C81.258,47.089 96.658,59.559 101.25,59.095 C101.25,59.095 103,54.674 102.554,51.325 C101.896,46.381 101.489,-4.304 45.719,3.013 C45.719,3.013 7.612,12.542 20.577,70.724 C20.577,70.724 39.084,72.369 35.533,57.772 C35.532,57.771 32.345,49.034 41.754,45.386 Z" id="Shape" fill="#0065FF"></path>
                <g transform="translate(24.000000, 25.000000)" fill="#FFC600" id="Shape">
                    <path d="M18.044,9.355 C18.688,10.757 17.835,12.52 16.147,13.297 L13.715,14.415 C12.024,15.194 10.132,14.692 9.485,13.282 C8.843,11.886 9.693,10.123 11.387,9.347 L13.816,8.229 C15.505,7.452 17.399,7.957 18.044,9.355 Z"></path>
                    <path d="M24.076,6.032 C25.207,9.275 30.836,10.967 24.501,12.89 L22.503,13.583 C19.256,14.71 15.714,12.994 14.583,9.755 C13.456,6.506 15.168,2.962 18.413,1.837 L20.415,1.142 C26.163,-0.856 24.076,6.032 24.076,6.032 Z"></path>
                    <path d="M4.115,16.099 C2.622,13.009 -3.167,11.974 2.909,9.338 L4.814,8.418 C7.91,6.926 11.627,8.227 13.119,11.315 C14.609,14.412 13.313,18.13 10.217,19.618 L8.312,20.539 C2.828,23.18 4.115,16.099 4.115,16.099 Z"></path>
                </g>
            </g>
            <g id="Group" transform="translate(365.000000, 353.000000)" fill-rule="nonzero">
                <g transform="translate(0.000000, 59.000000)" id="Shape">
                    <path d="M30.121,25.596 C30.121,27.689 28.427,29.376 26.341,29.376 L4.12,29.376 C2.034,29.376 0.34,27.69 0.34,25.596 L0.34,16.848 C0.34,14.764 2.033,13.068 4.12,13.068 L26.342,13.068 C28.428,13.068 30.122,14.763 30.122,16.848 L30.122,25.596 L30.121,25.596 Z" fill="#7A869A"></path>
                    <path d="M29.863,9.12 C29.863,4.507 23.309,0.757 15.23,0.757 C7.151,0.757 0.598,4.507 0.598,9.12 C0.598,10.477 1.174,11.767 2.187,12.9 C2.165,13.188 2.15,13.47 2.15,13.76 C2.15,17.205 3.672,19.986 5.541,19.986 C6.872,19.986 8.008,18.594 8.569,16.56 C8.718,16.605 8.864,16.642 9.014,16.681 C9.351,19.479 13.934,21.358 12.326,21.569 C10.872,21.76 15.036,19.861 15.504,17.475 C15.646,17.475 15.784,17.468 15.923,17.464 C16.398,19.86 17.643,21.573 19.108,21.573 C20.783,21.573 22.177,19.326 22.447,16.39 C22.488,16.379 22.533,16.362 22.567,16.345 C22.888,19.177 24.257,21.312 25.894,21.312 C27.763,21.312 29.281,18.523 29.281,15.086 C29.281,14.015 29.132,13.013 28.877,12.138 C29.512,11.195 29.863,10.186 29.863,9.12 Z" fill="#FDC58A"></path>
                </g>
                <g transform="translate(19.000000, 0.000000)" id="Shape">
                    <path d="M135.854,88.921 L16.443,88.921 L0.824,4.633 C0.824,2.539 2.518,0.848 4.604,0.848 L148.95,0.848 C151.04,0.848 152.73,2.539 152.73,4.633 L135.854,88.921 Z" fill="#D5D5D5"></path>
                    <g transform="translate(121.000000, 40.000000)">
                        <path d="M17.605,18.557 C16.543,18.671 15.422,18.738 14.248,18.738 C15.37,18.772 16.439,18.86 17.448,18.981 C17.497,18.838 17.553,18.7 17.605,18.557 Z" fill="#F8AB90"></path>
                        <path d="M15.815,25.862 C14.903,25.927 13.957,25.967 12.974,25.967 C13.957,25.967 14.899,26.038 15.774,26.171 C15.788,26.066 15.796,25.967 15.815,25.862 Z" fill="#F8AB90"></path>
                        <path d="M27.636,9.89 C27.337,8.821 26.87,7.658 26.253,6.496 C24.219,2.705 21.3,0.312 19.718,1.165 C18.137,2.006 18.503,5.771 20.529,9.56 C20.884,10.216 21.262,10.833 21.654,11.39 C21.426,11.644 21.205,11.908 20.981,12.194 C19.127,11.693 16.794,11.396 14.241,11.396 C8.248,11.396 3.388,13.037 3.388,15.071 C3.388,17.037 7.975,18.647 13.74,18.735 C13.486,18.729 13.235,18.718 12.974,18.718 C6.282,18.718 0.854,20.344 0.854,22.344 C0.854,24.342 6.282,25.969 12.974,25.969 C13.957,25.969 14.903,25.93 15.815,25.864 C15.796,25.969 15.789,26.068 15.774,26.172 C14.899,26.039 13.957,25.968 12.974,25.968 C8.204,25.968 4.335,27.648 4.335,29.721 C4.335,31.79 8.204,33.476 12.974,33.476 C13.983,33.476 14.948,33.401 15.849,33.255 C15.856,33.345 15.879,33.416 15.898,33.498 C12.544,33.664 9.946,34.898 9.946,36.403 C9.946,38.011 12.959,39.323 16.668,39.323 C19.27,39.323 21.521,38.684 22.642,37.736 C25.289,35.79 27.88,31.173 29.233,25.446 C30.896,18.414 30.152,12.034 27.636,9.89 Z M17.605,18.557 C17.553,18.699 17.497,18.837 17.448,18.981 C16.439,18.86 15.369,18.772 14.248,18.738 C15.422,18.739 16.544,18.671 17.605,18.557 Z" fill="#FDC58A"></path>
                    </g>
                </g>
                <path d="M105.276,44.891 C105.276,47.833 101.022,50.218 95.776,50.218 C90.523,50.218 86.276,47.833 86.276,44.891 C86.276,41.941 90.523,39.55 95.776,39.55 C101.022,39.551 105.276,41.942 105.276,44.891 Z" id="Shape" fill="#FFFFFF"></path>
            </g>
            <g id="Group" transform="translate(544.000000, 394.000000)">
                <path d="M1.54,40.238 L18.043,40.238 C18.593,40.238 19.043,39.788 19.043,39.238 L19.043,26.518 C19.043,25.968 18.593,25.518 18.043,25.518 L1.54,25.518 C0.99,25.518 0.54,25.968 0.54,26.518 L0.54,39.238 C0.54,39.788 0.99,40.238 1.54,40.238 Z" id="Shape" stroke="#F7D647" stroke-width="2"></path>
                <path d="M10.792,50.003 L35.589,50.003 C36.139,50.003 36.589,49.553 36.589,49.003 L36.589,18.652 C36.589,18.102 36.139,17.652 35.589,17.652 L10.792,17.652 C10.242,17.652 9.792,18.102 9.792,18.652 L9.792,49.003 C9.792,49.553 10.242,50.003 10.792,50.003 Z" id="Shape" fill="#FAA919" fill-rule="nonzero"></path>
                <path d="M24.381,15.527 C24.381,15.527 27.789,13.561 24.956,10.802 C24.297,10.16 23.391,9.126 25.415,6.61 C25.415,6.61 21.024,7.921 23.99,12.053 C24.499,12.763 25.156,14.379 24.381,15.527 Z" id="Shape" fill="#D5D5D5" fill-rule="nonzero"></path>
                <path d="M29.3,7.72 C29.3,7.72 32.232,6.029 29.794,3.656 C29.227,3.104 28.448,2.215 30.189,0.05 C30.189,0.05 26.412,1.178 28.963,4.732 C29.401,5.343 29.966,6.733 29.3,7.72 Z" id="Shape" fill="#D5D5D5" fill-rule="nonzero"></path>
            </g>
            <polygon id="Shape" fill="#7A869A" fill-rule="nonzero" points="322.026 437.412 308.148 437.412 310.489 408.936 318.949 408.936"></polygon>
            <path d="M308.796,305.271 L257.343,270.928 C257.343,270.928 250.691,329.857 248.474,349.501 C246.257,369.144 239.605,428.074 239.605,428.074 L293.669,416.282 L308.796,305.271 Z" id="Shape" fill="#FFAB00" fill-rule="nonzero" opacity="0.07"></path>
            <polygon id="Shape" fill="#FFAB00" fill-rule="nonzero" opacity="0.07" points="308.148 314.47 263.637 287.488 250.174 417.364 296.057 406.616"></polygon>
            <polygon id="Shape" fill="#FFAB00" fill-rule="nonzero" opacity="0.07" points="309.447 320.792 269.479 297.809 264.57 405.793 300.027 402.872"></polygon>
            <path d="M315.106,307.413 C335.355,311.265 357.518,325.466 350.256,373.37 C342.78,422.688 314.389,421.471 294.14,417.619" id="Shape" fill="#D5D5D5" fill-rule="nonzero"></path>
            <path d="M298.04,422.962 L291.894,422.078 C291.35,422 290.968,421.49 291.046,420.946 L307.984,303.126 C308.062,302.582 308.572,302.2 309.116,302.278 L315.262,303.162 C315.806,303.24 316.188,303.75 316.11,304.294 L299.172,422.114 C299.094,422.659 298.585,423.04 298.04,422.962 Z" id="Shape" fill="#E2E7E8" fill-rule="nonzero"></path>
            <path d="M336.882,442.094 L291.582,442.094 C290.529,442.094 289.668,441.233 289.668,440.18 C289.668,440.18 302.798,434.492 303.85,434.492 L325.259,434.492 C326.312,434.492 338.796,440.18 338.796,440.18 C338.796,441.233 337.935,442.094 336.882,442.094 Z" id="Shape" fill="#7A869A" fill-rule="nonzero"></path>
            <path d="M582.429,557.424 L247.129,557.424 C246.579,557.424 246.129,556.974 246.129,556.424 L246.129,458.554 C246.129,458.004 246.579,457.554 247.129,457.554 L582.429,457.554 C582.979,457.554 583.429,458.004 583.429,458.554 L583.429,556.424 C583.429,556.974 582.979,557.424 582.429,557.424 Z" id="Shape" fill="#FC5130" fill-rule="nonzero"></path>
            <rect id="Rectangle-path" fill="#D12A2A" fill-rule="nonzero" x="246.129" y="462.605" width="337.3" height="20.138"></rect>
            <path d="M588.91,462.605 L236.719,462.605 C236.169,462.605 235.719,462.155 235.719,461.605 L235.719,443.094 C235.719,442.544 236.169,442.094 236.719,442.094 L588.91,442.094 C589.46,442.094 589.91,442.544 589.91,443.094 L589.91,461.605 C589.91,462.155 589.46,462.605 588.91,462.605 Z" id="Shape" fill="#FC5130" fill-rule="nonzero"></path>
            <path d="M278.161,442.818 L233.344,442.818 C232.794,442.818 232.344,442.368 232.344,441.818 L232.344,435.491 C232.344,434.941 232.794,434.491 233.344,434.491 L278.161,434.491 C278.711,434.491 279.161,434.941 279.161,435.491 L279.161,441.818 C279.161,442.368 278.711,442.818 278.161,442.818 Z" id="Shape" fill="#D5D5D5" fill-rule="nonzero"></path>
            <g id="Group" transform="translate(129.000000, 377.000000)" fill-rule="nonzero">
                <path d="M89.797,62.375 C58.048,62.221 20.59,56.709 9.7,33.164 C9.7,33.164 -0.819,13.028 0.4,0.067 L23.374,4.562 C23.374,4.562 26.781,49.073 86.447,48.733" id="Shape" fill="#E2BC44"></path>
                <path d="M88.137,45.784 C62.141,43.236 44.402,33.867 44.402,33.867 C44.402,33.867 26.544,19.489 25.082,1.501 L6.017,1.501 C6.017,1.501 8.998,37.685 38.061,46.932 C57.64,53.161 74.758,56.063 88.997,57.124" id="Shape" fill="#F7D647"></path>
                <g transform="translate(83.000000, 41.000000)" fill="#FDC58A" id="Shape">
                    <path d="M5.926,25.228 C2.999,25.287 0.573,22.579 0.507,19.176 L0.266,7.277 C0.199,3.873 1.003,0.67 3.93,0.615 L12.681,0.867 C15.606,0.806 18.032,3.516 18.102,6.919 L18.339,18.823 C18.405,22.22 16.087,25.025 13.163,25.085 L5.926,25.228 Z"></path>
                    <path d="M15.119,7.079 C13.187,6.827 11.809,5.196 12.039,3.436 C12.266,1.679 14.02,0.457 15.956,0.711 L22.781,1.603 C24.719,1.857 26.1,3.486 25.873,5.245 C25.64,7.002 23.887,8.222 21.951,7.97 L15.119,7.079 Z"></path>
                    <path d="M15.459,19.763 C13.527,19.508 12.144,17.88 12.375,16.118 C12.604,14.361 14.359,13.141 16.292,13.393 L23.123,14.285 C25.052,14.537 26.438,16.17 26.207,17.927 C25.976,19.686 24.226,20.906 22.29,20.654 L15.459,19.763 Z"></path>
                    <path d="M16.835,13.735 C14.899,13.483 13.516,11.852 13.747,10.095 C13.976,8.333 15.73,7.111 17.662,7.366 L24.495,8.257 C26.429,8.51 27.812,10.14 27.579,11.902 C27.35,13.659 25.596,14.879 23.66,14.627 L16.835,13.735 Z"></path>
                    <path d="M11.324,24.014 C9.569,23.16 8.777,21.175 9.558,19.581 C10.334,17.985 12.384,17.387 14.141,18.24 L20.331,21.263 C22.084,22.114 22.875,24.1 22.097,25.696 C21.319,27.292 19.27,27.889 17.514,27.035 L11.324,24.014 Z"></path>
                </g>
            </g>
            <g id="Group" transform="translate(78.000000, 243.000000)" fill-rule="nonzero">
                <path d="M112.711,94.259 C114.652,115.203 100.888,133.608 81.974,135.371 L60.66,137.355 C41.742,139.116 24.843,123.571 22.909,102.627 L22.208,95.086 C20.27,74.143 34.032,55.742 52.942,53.977 L74.258,51.993 C93.172,50.229 110.074,65.778 112.011,86.719 L112.711,94.259 Z" id="Shape" fill="#F9AA6A"></path>
                <path d="M112.711,94.259 C114.652,115.203 100.888,133.608 81.974,135.371 L77.396,135.929 C58.478,137.69 41.579,122.145 39.645,101.201 L38.944,93.66 C37.006,72.717 34.032,55.742 52.941,53.977 L74.257,51.993 C93.171,50.229 110.073,65.778 112.01,86.719 L112.711,94.259 Z" id="Shape" fill="#FDC58A"></path>
                <path d="M81.802,97.285 C82.014,99.536 80.36,101.53 78.111,101.74 C75.859,101.95 73.867,100.291 73.66,98.043 C73.45,95.794 75.109,93.8 77.353,93.594 C79.604,93.382 81.595,95.036 81.802,97.285" id="Shape" fill="#221F1F"></path>
                <path d="M81.567,97.333 C81.632,98.045 81.112,98.671 80.402,98.735 C79.691,98.802 79.061,98.283 78.996,97.571 C78.927,96.862 79.45,96.235 80.163,96.166 C80.867,96.101 81.503,96.62 81.567,97.333" id="Shape" fill="#FFFFFF"></path>
                <path d="M104.669,95.135 C104.872,97.388 103.222,99.377 100.971,99.587 C98.721,99.797 96.731,98.142 96.518,95.895 C96.311,93.646 97.962,91.65 100.214,91.441 C102.465,91.233 104.458,92.891 104.669,95.135" id="Shape" fill="#221F1F"></path>
                <path d="M104.117,95.408 C104.181,96.117 103.657,96.748 102.948,96.816 C102.239,96.878 101.61,96.354 101.545,95.645 C101.477,94.936 101.998,94.311 102.71,94.242 C103.42,94.175 104.053,94.696 104.117,95.408" id="Shape" fill="#FFFFFF"></path>
                <path d="M79.95,112.671 C80.797,119.153 86.743,123.722 93.223,122.877 C99.709,122.028 104.279,116.085 103.43,109.599" id="Shape" fill="#FFFFFF"></path>
                <path d="M43.667,74.064 C43.667,74.064 36.898,85.044 40.356,98.991 L25.825,94.217 L27.412,85.573 C27.412,85.573 -2.923,56.005 28.429,44.746 C28.429,44.746 35.818,14.913 72.766,28.461 C72.766,28.461 88.75,18.565 76.711,3.034 C76.711,3.034 94.326,-1.791 103.036,8.211 C103.036,8.211 108.992,6.159 102.451,0.928 C99.097,-0.252 155.353,21.867 120.206,50.141" id="Shape" fill="#EB9D21"></path>
                <path d="M121.801,51.395 C121.801,51.395 146.749,73.158 111.174,83.372 L111.887,85.27 C111.887,85.27 108.593,69.823 102.993,64.011 C102.993,64.011 75.654,85.583 43.667,74.063 C43.667,74.063 36.898,85.04 40.356,98.99 L21.148,93.515 L19.454,84.593 C19.454,84.593 -22.225,53.531 18.153,37.185 C18.153,37.185 29.203,-4.512 69.129,21.634 C69.129,21.634 88.939,20.967 76.291,2.799 C76.291,2.799 96.395,-1.984 103.037,8.208 C103.037,8.208 110.295,6.436 102.452,0.925 C102.452,0.925 154.77,22.125 120.207,50.138 L121.801,51.395 Z" id="Shape" fill="#F72A14"></path>
                <path d="M121.801,51.395 C121.801,51.395 146.749,73.158 111.174,83.372 L111.887,85.27 C111.887,85.27 108.593,69.823 102.993,64.011 C102.993,64.011 75.654,85.583 43.667,74.063 C43.667,74.063 36.898,85.04 40.356,98.99 L28.155,95.512 L26.291,85.696 C26.291,85.696 -5.154,56.194 28.204,48.697 C28.204,48.697 35.08,5.102 75.006,31.248 C75.006,31.248 98.36,21.085 82.403,2.065 C82.403,2.065 101.867,-1.831 104.207,12.439 C104.207,12.439 113.789,7.83 102.451,0.926 C102.451,0.926 154.769,22.126 120.206,50.139 L121.801,51.395 Z" id="Shape" fill="#FC5130"></path>
            </g>
            <polygon id="Shape" fill="#FFAB00" fill-rule="nonzero" opacity="0.14" points="305.751 318.667 239.604 428.074 291.654 416.721"></polygon>
            <polygon id="Shape" fill="#FFAB00" fill-rule="nonzero" opacity="0.07" points="257.342 270.928 307.821 304.268 305.751 318.667 239.604 428.074"></polygon>
            <polygon id="Shape" fill="#FFAB00" fill-rule="nonzero" opacity="0.07" points="257.342 270.928 307.821 304.268 305.751 318.667 249.378 341.485"></polygon>
            <g id="Group" transform="translate(358.000000, 58.000000)" fill-rule="nonzero">
                <rect id="Rectangle-path" stroke="#FF8F73" stroke-width="5" fill="#FCFCFC" x="0.142" y="0.311" width="80.513" height="92.468"></rect>
                <circle id="Oval" fill="#C1A4F7" cx="40.399" cy="41.23" r="24.017"></circle>
                <polygon id="Shape" fill="#79F2C0" points="18.282 79.42 62.516 79.42 40.399 45.336"></polygon>
            </g>
            <g id="Group" transform="translate(56.000000, 56.000000)" fill="#C1A4F7" fill-rule="nonzero">
                <path d="M407.293,3.844 C407.293,5.476 406.167,6.802 404.776,6.802 C403.386,6.802 402.26,5.476 402.26,3.844 C402.26,2.212 403.387,0.888 404.776,0.888 C406.167,0.888 407.293,2.211 407.293,3.844 Z" id="Shape"></path>
                <path d="M520.071,266.905 C520.071,269.539 517.936,271.679 515.297,271.679 C512.661,271.679 510.525,269.539 510.525,266.905 C510.525,264.269 512.661,262.131 515.297,262.131 C517.936,262.131 520.071,264.269 520.071,266.905 Z" id="Shape"></path>
                <path d="M195.373,143.93 C195.373,146.564 193.238,148.704 190.599,148.704 C187.963,148.704 185.827,146.564 185.827,143.93 C185.827,141.294 187.962,139.156 190.599,139.156 C193.238,139.156 195.373,141.294 195.373,143.93 Z" id="Shape"></path>
                <path d="M576.592,369.336 C576.592,370.744 575.447,371.888 574.037,371.888 C572.627,371.888 571.483,370.744 571.483,369.336 C571.483,367.919 572.627,366.777 574.037,366.777 C575.447,366.777 576.592,367.919 576.592,369.336 Z" id="Shape"></path>
                <path d="M630.721,77.34 C630.721,80.611 628.066,83.267 624.796,83.267 C621.525,83.267 618.872,80.611 618.872,77.34 C618.872,74.073 621.524,71.422 624.796,71.422 C628.066,71.422 630.721,74.073 630.721,77.34 Z" id="Shape"></path>
                <path d="M262.266,214.931 C262.266,217.307 260.347,219.234 257.966,219.234 C255.585,219.234 253.663,217.307 253.663,214.931 C253.663,212.55 255.585,210.623 257.966,210.623 C260.347,210.623 262.266,212.55 262.266,214.931 Z" id="Shape"></path>
                <path d="M169.05,252.262 C169.05,253.573 167.992,254.637 166.678,254.637 C165.364,254.637 164.304,253.572 164.304,252.262 C164.304,250.949 165.364,249.887 166.678,249.887 C167.992,249.887 169.05,250.95 169.05,252.262 Z" id="Shape"></path>
                <path d="M4.796,210.623 C4.796,211.934 3.738,212.998 2.424,212.998 C1.11,212.998 0.05,211.933 0.05,210.623 C0.05,209.31 1.11,208.248 2.424,208.248 C3.738,208.248 4.796,209.31 4.796,210.623 Z" id="Shape"></path>
                <path d="M538.043,7.682 C538.043,9.794 536.327,11.506 534.216,11.506 C532.095,11.506 530.382,9.794 530.382,7.682 C530.382,5.564 532.094,3.845 534.216,3.845 C536.328,3.845 538.043,5.564 538.043,7.682 Z" id="Shape"></path>
                <path d="M364.765,186.182 C364.765,187.445 363.744,188.464 362.485,188.464 C361.226,188.464 360.205,187.445 360.205,186.182 C360.205,184.923 361.226,183.904 362.485,183.904 C363.744,183.904 364.765,184.923 364.765,186.182 Z" id="Shape"></path>
                <path d="M262.747,55.204 C262.747,56.53 261.676,57.598 260.355,57.598 C259.036,57.598 257.965,56.529 257.965,55.204 C257.965,53.885 259.036,52.814 260.355,52.814 C261.676,52.814 262.747,53.885 262.747,55.204 Z" id="Shape"></path>
                <path d="M580.317,194.715 C579.443,196.341 577.419,196.943 575.796,196.077 C574.168,195.198 573.564,193.171 574.438,191.549 C575.312,189.925 577.34,189.317 578.966,190.191 C580.585,191.068 581.195,193.094 580.317,194.715 Z" id="Shape"></path>
            </g>
            <g id="Group" transform="translate(466.000000, 132.000000)" fill-rule="nonzero">
                <rect id="Rectangle-path" stroke="#FF8F73" stroke-width="5" fill="#FCFCFC" x="0.582" y="0.077" width="118.773" height="92.468"></rect>
                <polygon id="Shape" fill="#79F2C0" points="51.468 85.199 108.169 85.199 108.169 41.508"></polygon>
                <circle id="Oval" fill="#C1A4F7" cx="42.425" cy="44.386" r="30.544"></circle>
                <circle id="Oval" fill="#C1A4F7" cx="98.45" cy="17.74" r="10.446"></circle>
            </g>
            <polyline id="Shape" stroke="#416FF9" stroke-width="5" points="209.04 151.594 209.04 0.255 206.161 0.255 1.648 0.255"></polyline>
            <path d="M166.008,167.188 C166.008,144.112 185.274,125.405 209.04,125.405 C232.806,125.405 252.072,144.112 252.072,167.188 L166.008,167.188 Z" id="Shape" fill="#00D8FF" fill-rule="nonzero"></path>
            <path d="M220.473,167.061 C220.473,175.941 215.436,178.311 209.223,178.311 C203.01,178.311 197.973,173.274 197.973,167.061" id="Shape" fill="#F7D647" fill-rule="nonzero"></path>
        </g>
    </g>
</svg>